<svg id="Layer_1" data-name="Layer 1" xmlns="http://www.w3.org/2000/svg" viewBox="0 0 301.79 245.07"><defs><style>.cls-1,.cls-3{fill:#1b1b1b;}.cls-2{fill:#405260;}.cls-3{stroke:#1b1b1b;stroke-miterlimit:10;stroke-width:8px;}</style></defs><path class="cls-1" d="M94.5,117.53c0,10-3.71,15.11-11,15.11-8.68,0-10.5-8.21-10.5-15.11V82.62H61.16v34.72c0,22.46,13.8,25.82,22,25.82,14.7,0,23.14-9.53,23.14-26.13V82.62H94.5Z"/><rect class="cls-1" x="113.92" y="82.62" width="11.83" height="59.64"/><path class="cls-1" d="M201.32,175.72c0,10-3.7,15.11-11,15.11-8.68,0-10.5-8.22-10.5-15.11V140.81H168v34.71c0,22.47,13.8,25.82,22,25.82,14.71,0,23.14-9.52,23.14-26.13v-34.4H201.32Z"/><path class="cls-1" d="M247.06,170l18.24-29.14H251.48l-8.14,14.09c-1.18,2-2.16,3.78-3.1,5.52-.91-1.68-1.91-3.46-3.08-5.52l-8-14.09H215.46L233,170.26l-18.24,30.19h13.74l7.24-13.26c1.72-2.93,3-5.18,4.08-7.22,1.25,2.19,2.61,4.46,4.28,7.17l7.72,13.31h13.79Z"/><polygon class="cls-2" points="160.47 94.18 126.69 182.06 141.13 182.06 175.1 94.18 160.47 94.18"/><path class="cls-3" d="M297.79,241.07H85.66A81.75,81.75,0,0,1,4,159.41C4,73.72,73.72,4,159.41,4c76.3,0,138.38,62.08,138.38,138.38ZM159.41,16.52c-78.79,0-142.89,64.1-142.89,142.89a69.22,69.22,0,0,0,69.14,69.14H285.27V142.38A126,126,0,0,0,159.41,16.52Z"/></svg>