<svg id="Layer_1" data-name="Layer 1" xmlns="http://www.w3.org/2000/svg" viewBox="0 0 167.71 213.75"><defs><style>.cls-1{fill:#1b1b1b;}.cls-2{fill:#405260;}</style></defs><path class="cls-1" d="M70.12,120.57a11.21,11.21,0,0,0,7.7,10.61V110A11.23,11.23,0,0,0,70.12,120.57Z"/><path class="cls-1" d="M89.86,165.71a11.16,11.16,0,0,0,0-21.23Z"/><path class="cls-1" d="M166.84,171.37C152.2,106.5,108.4,62.71,108.4,62.71H59.31S15.51,106.5.87,171.37a34.69,34.69,0,0,0,33.78,42.38H133A34.7,34.7,0,0,0,166.84,171.37Zm-57.23-16.28a23.32,23.32,0,0,1-19.75,23V189h-12V178.09a23.35,23.35,0,0,1-19.74-23h12a11.23,11.23,0,0,0,7.7,10.62V143.56a23.25,23.25,0,0,1,0-46V87.43h12V97.6a23.27,23.27,0,0,1,19.75,23h-12A11.22,11.22,0,0,0,89.86,110v22.17A23.27,23.27,0,0,1,109.61,155.09Z"/><path class="cls-2" d="M57.74,51.38H110s27.69-16.57,27.69-41.09l-20,12.44a15.92,15.92,0,0,1-21.6-4.62L83.85,0,71.65,18.11A15.93,15.93,0,0,1,50,22.73L30,10.29C30,34.81,57.74,51.38,57.74,51.38Z"/></svg>