<svg id="Layer_1" data-name="Layer 1" xmlns="http://www.w3.org/2000/svg" viewBox="0 0 188.15 242.05"><defs><style>.cls-1{fill:#1b1b1b;}.cls-2{fill:#405260;}</style></defs><path class="cls-1" d="M180.88,190.67l-17.5-12a65.41,65.41,0,0,0-9,9l-5.57-3.81-.41.59-38.07-26.06a8.55,8.55,0,0,0,6.88-8.54c0-.7-.34-17.37-2-35.17-3-31.66-7.91-41.07-12.9-45.05a7.41,7.41,0,0,0-2.52-1.83l-6-2.62h0c1.08-2.76-4.91-4.62-5.8-2.54l-16-7c.55-1.57-7.3-5.14-8.11-3.56l-3.65-1.6a7.34,7.34,0,0,0-2.95-.62,97,97,0,0,0-17.53-2.49c-13.41-.72-21.61,1.48-25.81,6.91C8.1,61.83,2,85.44.25,92.49a8.55,8.55,0,0,0,5.63,10.16l-.23.34L5,102.65l-2,2.88s14.38,8.83,19.44,1.45l6.5,4.46c-2.38,6.54-4.5,12.48-6,17-.77,2.26-.46,5.43.5,8.45,0,.35.09.69.16,1l8.54,40.62L13.09,225.73a11.88,11.88,0,0,0,22,8.9l20.42-50.51a11.77,11.77,0,0,0,.61-6.89L51,152.57c1.65.55,3,1,4,1.41l18.31,25.11L66,228.45a11.89,11.89,0,0,0,10,13.48,11.48,11.48,0,0,0,1.74.12A11.87,11.87,0,0,0,89.52,231.9l8-54.17A11.93,11.93,0,0,0,95.31,169l-19-26,68.41,46.84-.4.58,5.54,3.8a60.34,60.34,0,0,0-5.1,11.67l17.5,12c6,4.12,20.62,2.41,24.37-3.08S186.62,194.6,180.88,190.67ZM95.19,95.11a218.94,218.94,0,0,1,3.14,23.38c1.47,16.32,1.77,31.53,1.77,31.67a9.52,9.52,0,0,0,.13,1.32l-24.39-16.7C82.16,122.2,89.61,106.8,95.19,95.11Zm-75.78,8.58c-2.24,3.28-7.3,2.07-11.13.5l.77-1.12a8.55,8.55,0,0,0,7.81-6.49c.63-2.57,1.34-5.27,2.08-8l.34-.49c2.77,3.11,5.65,7.5,3.54,10.59ZM20.27,84c2.49-8.42,5.16-16,6.87-18.77,3.14-1.37,12.18-1,19.16-.09C42.53,75,36.87,90,31.8,103.76L27,100.45C30.69,95,23.55,87.15,20.27,84Z"/><path class="cls-2" d="M63.6,18.48l4.93,2.16c-.27.53-.53,1.06-.78,1.61a26,26,0,1,0,47.64,20.91c.25-.55.46-1.11.66-1.67L121,43.66c1.65.72,4.29-1.67,4.29-1.67l-6.92-5.49c.22-.51.42-1,.61-1.54l.15-.44c.14-.41.27-.81.39-1.21,0-.13.08-.26.11-.39.15-.52.27-1,.38-1.55,0-.11,0-.23.07-.34.08-.42.15-.84.21-1.27l.06-.45c.06-.48.11-.95.15-1.42,0-.05,0-.11,0-.16,0-.53.05-1.06.05-1.59v-.39c0-.42,0-.85-.05-1.28,0-.11,0-.23,0-.34,0-.54-.1-1.07-.17-1.6,0,0,0-.05,0-.08-.07-.5-.16-1-.26-1.5l-.06-.31c-.11-.5-.23-1-.36-1.48,0,0,0,0,0-.06-.15-.54-.31-1.07-.5-1.59a.58.58,0,0,0,0-.14c-.17-.48-.35-1-.55-1.42a1.22,1.22,0,0,0-.07-.17,26,26,0,0,0-1.5-3,.41.41,0,0,1-.07-.11,26,26,0,0,0-3.79-4.91l0,0q-.47-.48-1-.93L112,6.74a21.82,21.82,0,0,0-1.81-1.5L110,5.08l-.64-.46-.47-.32-.47-.3-.83-.5A28.31,28.31,0,0,0,105,2.19,26.3,26.3,0,0,0,101.51,1l-.09,0-.89-.23-.22,0-.94-.2-.1,0C98.46.29,97.65.18,96.84.1h0c-.44,0-.89-.07-1.34-.08H93.93a24.44,24.44,0,0,0-3.09.25h0c-.54.08-1.06.17-1.59.28L89,.58a27.86,27.86,0,0,0-3.16.89l-.23.09c-.45.16-.9.34-1.34.52l-.2.09c-.5.21-1,.45-1.48.69l-.11.06c-.43.23-.85.46-1.27.71l-.31.18c-.42.26-.83.52-1.24.8l-.09.07c-.44.3-.86.62-1.28,1l-.28.22c-.33.27-.65.55-1,.83l-.29.26c-.38.36-.76.73-1.13,1.12l-.11.11c-.32.35-.64.71-1,1.07-.1.12-.19.24-.29.35-.27.34-.53.68-.79,1l-.2.27c-.31.43-.6.87-.89,1.33l-.2.34q-.33.54-.63,1.11l-.23.41c-.25.49-.49,1-.71,1.5l-8.73-1.39S62,17.76,63.6,18.48Z"/></svg>