<svg id="Layer_1" data-name="Layer 1" xmlns="http://www.w3.org/2000/svg" viewBox="0 0 208.39 208.39"><defs><style>.cls-1{fill:#1b1b1b;}.cls-1,.cls-2{fill-rule:evenodd;}.cls-2{fill:#405260;}</style></defs><path class="cls-1" d="M104.2,0A104.2,104.2,0,1,1,0,104.2,104.2,104.2,0,0,1,104.2,0Zm0,24.88a79.32,79.32,0,1,0,79.31,79.32A79.32,79.32,0,0,0,104.2,24.88Z"/><path class="cls-2" d="M104.26,57.09,105.44,45a4.64,4.64,0,0,1,.42-1.45,3.64,3.64,0,0,1,1.6-1.69,5.62,5.62,0,0,1,2.15-.67c.83-.08,1.68-.1,2.51-.1a20.34,20.34,0,0,1,2.82.16,6,6,0,0,1,2.37.76,3.6,3.6,0,0,1,1.57,1.87,4.23,4.23,0,0,1,.25,1.93l-1.29,11.64c.8.13,1.6.28,2.39.46,1.48.34,3,.76,4.39,1.24a29.31,29.31,0,0,1,3.85,1.57,11.78,11.78,0,0,1,2.71,1.73,6,6,0,0,1,1.31,1.69,7.76,7.76,0,0,1,.52,1.54,15.36,15.36,0,0,1,.28,1.65,17,17,0,0,1,.11,2.14,23.6,23.6,0,0,1-.11,2.52,8.5,8.5,0,0,1-.44,2.06,4.16,4.16,0,0,1-1.26,1.78,3.49,3.49,0,0,1-2.18.73A7.88,7.88,0,0,1,126,75.38a40.5,40.5,0,0,0-4-1.82,47.46,47.46,0,0,0-5.55-1.84,26.08,26.08,0,0,0-6.81-.82,28,28,0,0,0-7.3.82,12.57,12.57,0,0,0-4.52,2.11,7.34,7.34,0,0,0-2.3,3A10.84,10.84,0,0,0,94.75,81a9.9,9.9,0,0,0,1.5,5.65,14.31,14.31,0,0,0,4.32,4.06,33,33,0,0,0,6.56,3.08c2.69.94,5.37,1.91,8.05,2.88s5.5,2.11,8.18,3.34a29.59,29.59,0,0,1,7.57,4.92,23.74,23.74,0,0,1,5.48,7.39A25.07,25.07,0,0,1,138.5,123a25.67,25.67,0,0,1-2.3,11,24.21,24.21,0,0,1-6.56,8.52A32,32,0,0,1,119.52,148a46.36,46.36,0,0,1-11.18,2.27L107,163.41a4.89,4.89,0,0,1-.44,1.5,3.61,3.61,0,0,1-1.66,1.66,7.11,7.11,0,0,1-2,.57,16.22,16.22,0,0,1-2.6.17,16.4,16.4,0,0,1-2.89-.22,8.17,8.17,0,0,1-2-.55,3.45,3.45,0,0,1-1.89-1.88,3.91,3.91,0,0,1-.17-2.06l1.35-12.76c-1.42-.22-2.82-.49-4.22-.81a52.32,52.32,0,0,1-5.25-1.47,27.56,27.56,0,0,1-4.06-1.74,12.06,12.06,0,0,1-2.81-1.92,6,6,0,0,1-1.57-3,16.71,16.71,0,0,1-.34-3.73,20.57,20.57,0,0,1,.16-2.83,9.31,9.31,0,0,1,.53-2.14,3.86,3.86,0,0,1,1.74-2,4.47,4.47,0,0,1,2.12-.5,7.67,7.67,0,0,1,3.67,1.3,37.31,37.31,0,0,0,4.14,2.09,42.26,42.26,0,0,0,6.32,2.12,35.82,35.82,0,0,0,8.88,1c4.44,0,9.85-.63,13.51-3.41a10.29,10.29,0,0,0,4.21-8.71,9.69,9.69,0,0,0-1.48-5.56,14.8,14.8,0,0,0-4.31-4.07,32.75,32.75,0,0,0-6.52-3.17l-7.92-2.84A83.81,83.81,0,0,1,93.41,105,31,31,0,0,1,86,100a23.38,23.38,0,0,1-5.4-7.41A25,25,0,0,1,78.5,82a25.41,25.41,0,0,1,1.73-9.45,21.77,21.77,0,0,1,5.28-7.77,27,27,0,0,1,8.7-5.34A37.55,37.55,0,0,1,104.26,57.09Z"/></svg>