<svg id="Layer_1" data-name="Layer 1" xmlns="http://www.w3.org/2000/svg" viewBox="0 0 215.75 215.75"><defs><style>.cls-1{fill:#1b1b1b;}.cls-1,.cls-2{fill-rule:evenodd;}.cls-2{fill:#405260;}</style></defs><path class="cls-1" d="M170.64,61.9ZM19.2,52ZM186,75.54a85.76,85.76,0,0,0-4.23-8.74L196.52,52l0,0a5.66,5.66,0,0,0,0-8L171.78,19.23l0,0a5.64,5.64,0,0,0-8,0L149,34a85.76,85.76,0,0,0-8.74-4.23,83.89,83.89,0,0,0-9.16-3.19v-21A5.65,5.65,0,0,0,125.4,0H90.35A5.65,5.65,0,0,0,84.7,5.65v21A84,84,0,0,0,66.8,34L52,19.23l0,0a5.64,5.64,0,0,0-8,0L19.24,44l0,0a5.66,5.66,0,0,0,0,8L34,66.8a85.76,85.76,0,0,0-4.23,8.74A83.89,83.89,0,0,0,26.6,84.7h-21A5.65,5.65,0,0,0,0,90.35V125.4a5.65,5.65,0,0,0,5.65,5.65h21a83.89,83.89,0,0,0,3.19,9.16A85.76,85.76,0,0,0,34,149l-14.79,14.8,0,0a5.66,5.66,0,0,0,0,8L44,196.52l0,0a5.66,5.66,0,0,0,8,0L66.8,181.73A85.76,85.76,0,0,0,75.54,186a83.89,83.89,0,0,0,9.16,3.19V210.1a5.65,5.65,0,0,0,5.65,5.65H125.4a5.65,5.65,0,0,0,5.65-5.65V189.15a83.89,83.89,0,0,0,9.16-3.19,85.76,85.76,0,0,0,8.74-4.23l14.8,14.79,0,0a5.66,5.66,0,0,0,8,0l24.76-24.77,0,0a5.66,5.66,0,0,0,0-8L181.73,149a85.76,85.76,0,0,0,4.23-8.74,83.89,83.89,0,0,0,3.19-9.16H210.1a5.65,5.65,0,0,0,5.65-5.65V90.35a5.65,5.65,0,0,0-5.65-5.65H189.15A83.89,83.89,0,0,0,186,75.54Zm-78.08-8A40.36,40.36,0,1,1,79.36,79.36,40.18,40.18,0,0,1,107.88,67.54Z"/><path class="cls-1" d="M107.88,129.33a21.46,21.46,0,1,0-21.46-21.46A21.5,21.5,0,0,0,107.88,129.33Z"/><path class="cls-2" d="M107.88,48.1A59.78,59.78,0,1,1,48.1,107.87,59.77,59.77,0,0,1,107.88,48.1Zm0,19.44a40.36,40.36,0,1,0,28.51,11.82A40.19,40.19,0,0,0,107.88,67.54Z"/></svg>