<svg id="Layer_1" data-name="Layer 1" xmlns="http://www.w3.org/2000/svg" xmlns:xlink="http://www.w3.org/1999/xlink" viewBox="0 0 329.82 329.82"><defs><style>.cls-1{fill:#fff;}.cls-2{fill:#b11f24;}.cls-3{fill:url(#radial-gradient);}.cls-4{fill:#e41e26;}</style><radialGradient id="radial-gradient" cx="16021.72" cy="-95.1" r="35.96" gradientTransform="matrix(0.23, -0.08, 2.94, 8.48, -3267.78, 2254.82)" gradientUnits="userSpaceOnUse"><stop offset="0" stop-color="#010101"/><stop offset="1" stop-color="#010101" stop-opacity="0"/></radialGradient></defs><rect class="cls-1" width="329.82" height="329.82"/><path id="path4155" class="cls-2" d="M184.1,43.72,184,97.37,183.91,151l-4.41-12.45v0L173.78,258c5.62,15.84,8.63,24.3,8.66,24.33s3.22.23,7.09.42c11.69.57,26.18,1.82,37.2,3.19a24.93,24.93,0,0,0,4.89.35c.16-.13.19-54.73.16-121.38l-.1-121.15Z"/><path id="path4157" class="cls-2" d="M98,43.56V164.84c0,66.71.06,121.35.16,121.44s4.21-.31,9.19-.86,11.85-1.24,15.27-1.53c5.24-.45,21-1.44,22.74-1.47.54,0,.57-2.71.63-51.38l.1-51.38,3.8,10.73c.57,1.66.77,2.17,1.34,3.8L157,74.79c-1.22-3.42-.58-1.63-2-5.53-4.66-13.18-8.62-24.33-8.78-24.84l-.32-.89H98Z"/><path id="path5715" class="cls-2" d="M184.1,43.72,184,97.37,183.91,151l-4.41-12.45v0L173.78,258c5.62,15.84,8.63,24.3,8.66,24.33s3.22.23,7.09.42c11.69.57,26.18,1.82,37.2,3.19a24.93,24.93,0,0,0,4.89.35c.16-.13.19-54.73.16-121.38l-.1-121.15Z"/><path id="path5719" class="cls-3" d="M98,43.56v68.08l48,127.22c0-2.9,0-4.5,0-7.82l.1-51.38,3.8,10.73c21.08,59.78,32.41,91.84,32.48,91.9s3.22.23,7.09.42c11.68.57,26.18,1.82,37.2,3.19a24.84,24.84,0,0,0,4.88.35c.1-.09.16-26.85.16-64.63L184,84.37l0,13L183.91,151l-4.41-12.45c-4.31-12.17-7.18-20.31-24.52-69.3-4.67-13.18-8.63-24.33-8.79-24.84l-.32-.89H98v0Z"/><path id="path5721" class="cls-4" d="M98,43.56,146.1,179.75v-.06l3.8,10.73c21.11,59.75,32.44,91.81,32.51,91.87s3.22.23,7.09.42c11.68.57,26.18,1.82,37.2,3.19a24.59,24.59,0,0,0,4.85.35L183.91,151v0l-4.41-12.45c-4.31-12.17-7.18-20.31-24.52-69.3-4.67-13.18-8.63-24.33-8.79-24.84l-.32-.89H122L98,43.56Z"/></svg>