<svg id="Layer_1" data-name="Layer 1" xmlns="http://www.w3.org/2000/svg" viewBox="0 0 329.82 329.82"><defs><style>.cls-1{fill:#fff;}.cls-2{fill:#212121;}.cls-3{fill:#3f3f3f;}</style></defs><rect class="cls-1" width="329.82" height="329.82"/><path class="cls-2" d="M53.82,153h82.73V135.21a6,6,0,0,1,6-5.93H202a5.93,5.93,0,0,1,5.95,5.94v59.37a6,6,0,0,1-5.94,5.94H142.49a6,6,0,0,1-5.94-5.93h0V176.78H53.83C60.41,242,118.77,289.62,184.18,283.06s113.13-64.78,106.55-130A119.07,119.07,0,0,0,172.29,46.15h0A119,119,0,0,0,53.86,152.52Z"/><path class="cls-3" d="M175.69,46.2h-2.77v83.08H202a5.93,5.93,0,0,1,5.95,5.94v59.37a6,6,0,0,1-5.94,5.94H172.92v83.14c3.72,0,7.48-.22,11.26-.61,65.43-6.57,113.13-64.78,106.55-130A119.08,119.08,0,0,0,175.69,46.2Z"/></svg>