<svg id="Layer_1" data-name="Layer 1" xmlns="http://www.w3.org/2000/svg" viewBox="0 0 329.82 329.82"><defs><style>.cls-1{fill:#fff;}.cls-2{fill:#e53338;}.cls-3{fill:#3466b1;}.cls-4{fill:#f3af1c;}.cls-5{fill:#87b940;}</style></defs><rect class="cls-1" width="329.82" height="329.82"/><path class="cls-2" d="M60.51,145.1c-19.85,0-36.41,8.43-36.41,33.85,0,20.15,11.14,32.82,36.93,32.82,30.37,0,32.31-20,32.31-20H78.63s-3.16,10.77-18.49,10.77c-12.5,0-21.49-8.44-21.49-20.28H94.88v-7.43c0-11.68-7.43-29.73-34.37-29.73Zm-.5,9.49c11.9,0,20,7.29,20,18.21H39C39,161.2,49.56,154.59,60,154.59Z"/><path class="cls-3" d="M94.87,120.48V199c0,4.46-.32,10.71-.32,10.71h14s.5-4.49.5-8.6c0,0,6.94,10.84,25.79,10.84,19.86,0,33.34-13.79,33.34-33.53,0-18.38-12.39-33.15-33.3-33.15-19.59,0-25.68,10.57-25.68,10.57V120.48ZM131.28,155c13.48,0,22.06,10,22.06,23.44,0,14.4-9.9,23.82-22,23.82-14.39,0-22.16-11.24-22.16-23.69,0-11.61,7-23.57,22-23.57Z"/><path class="cls-4" d="M203.1,145.1c-29.89,0-31.8,16.36-31.8,19h14.87s.78-9.55,15.91-9.55c9.82,0,17.43,4.5,17.43,13.14v3.08H202.08c-23.16,0-35.4,6.77-35.4,20.51,0,13.53,11.32,20.89,26.59,20.89,20.83,0,27.54-11.51,27.54-11.51,0,4.57.36,9.09.36,9.09h13.22s-.51-5.58-.51-9.16V169.64C233.86,149.36,217.52,145.1,203.1,145.1ZM219.5,180v4.11c0,5.35-3.3,18.66-22.74,18.66-10.64,0-15.21-5.32-15.21-11.48C181.55,180,196.92,180,219.5,180Z"/><path class="cls-5" d="M225.86,147.67h16.73l24,48.11,24-48.11h15.14l-43.64,85.66h-15.9l12.6-23.88-32.92-61.78Z"/></svg>