<svg id="Layer_1" data-name="Layer 1" xmlns="http://www.w3.org/2000/svg" viewBox="0 0 329.82 329.82"><defs><style>.cls-1{fill:#fff;}.cls-2{fill:#010101;}</style></defs><rect class="cls-1" width="329.82" height="329.82"/><path class="cls-2" d="M264,48H65.84A17,17,0,0,0,48.65,64.67h0V265.15a17,17,0,0,0,17.19,16.73H264a17,17,0,0,0,17.19-16.73h0V64.67A17,17,0,0,0,264,48ZM115.31,243.75H88a3.87,3.87,0,0,1-3.87-3.87V142.34A3.86,3.86,0,0,1,88,138.48h27.35a3.86,3.86,0,0,1,3.87,3.86v97.54A3.87,3.87,0,0,1,115.31,243.75Zm-13.67-120h0a18.25,18.25,0,0,1-.11-36.49h.21a18.36,18.36,0,0,1,4,36.5A17.83,17.83,0,0,1,101.64,123.74Zm140.23,120H214.51a3.88,3.88,0,0,1-3.87-3.87V187.25c0-14.15-5-23.39-17.77-23.39a19.32,19.32,0,0,0-18,12.75,23.55,23.55,0,0,0-1.17,8.54v54.61a3.86,3.86,0,0,1-3.86,3.87H142.46a3.86,3.86,0,0,1-3.86-3.87V142.23a3.86,3.86,0,0,1,3.86-3.87h27.36a3.86,3.86,0,0,1,3.86,3.87h0a3.87,3.87,0,0,0,6.51,2.82,35,35,0,0,1,25.19-9.38c23.39,0,40.35,15.09,40.35,47.49v56.72A3.87,3.87,0,0,1,241.87,243.75Z"/></svg>