<svg id="Layer_1" data-name="Layer 1" xmlns="http://www.w3.org/2000/svg" xmlns:xlink="http://www.w3.org/1999/xlink" viewBox="0 0 329.82 329.82"><defs><style>.cls-1{fill:#fff;}.cls-2{fill:url(#linear-gradient);}.cls-3{fill:url(#linear-gradient-2);}.cls-4{fill:url(#linear-gradient-3);}</style><linearGradient id="linear-gradient" x1="72.45" y1="-2286.39" x2="257.38" y2="-2101.46" gradientTransform="matrix(1, 0, 0, -1, 0, -2029.01)" gradientUnits="userSpaceOnUse"><stop offset="0" stop-color="#fdc113"/><stop offset="0.51" stop-color="#ef4538"/><stop offset="0.99" stop-color="#904098"/></linearGradient><linearGradient id="linear-gradient-2" x1="124.89" y1="-2233.95" x2="204.93" y2="-2153.91" xlink:href="#linear-gradient"/><linearGradient id="linear-gradient-3" x1="220.42" y1="-2138.42" x2="231.08" y2="-2127.76" xlink:href="#linear-gradient"/></defs><rect class="cls-1" width="329.82" height="329.82"/><path class="cls-2" d="M207.36,51.73H122.47a70.74,70.74,0,0,0-70.74,70.74v84.89a70.74,70.74,0,0,0,70.74,70.74h84.89a70.74,70.74,0,0,0,70.74-70.74V122.47A70.74,70.74,0,0,0,207.36,51.73Zm49.52,155.63a49.58,49.58,0,0,1-49.52,49.52H122.47A49.58,49.58,0,0,1,73,207.36V122.47A49.57,49.57,0,0,1,122.47,73h84.89a49.58,49.58,0,0,1,49.52,49.52Z"/><path class="cls-3" d="M164.91,108.32a56.6,56.6,0,1,0,56.6,56.59A56.59,56.59,0,0,0,164.91,108.32Zm0,92a35.37,35.37,0,1,1,35.37-35.37A35.41,35.41,0,0,1,164.91,200.28Z"/><circle class="cls-4" cx="225.75" cy="104.08" r="7.54"/></svg>