<svg id="Layer_1" data-name="Layer 1" xmlns="http://www.w3.org/2000/svg" viewBox="0 0 329.82 329.82"><defs><style>.cls-1{fill:#fff;}.cls-2{fill:#27356a;}.cls-3{fill:#2791c3;}.cls-4{fill:#1e274f;}</style></defs><rect class="cls-1" width="329.82" height="329.82"/><path class="cls-2" d="M233.1,67.53c-10.62-12.1-29.82-17.29-54.38-17.29H107.45a10.21,10.21,0,0,0-10.08,8.61L67.69,247.07a6.12,6.12,0,0,0,6,7.07h44l11-70.09-.34,2.19a10.18,10.18,0,0,1,10-8.61H159.4c41.08,0,73.24-16.68,82.64-64.95.28-1.43.52-2.81.73-4.17h0c2.8-17.84,0-30-9.67-41"/><path class="cls-2" d="M145.63,102.08a9,9,0,0,1,3.85-.87h55.88a116.42,116.42,0,0,1,18.43,1.34c1.57.25,3.14.55,4.7.9,2.21.49,4.4,1.09,6.55,1.79a50.14,50.14,0,0,1,7.73,3.27c2.8-17.85,0-30-9.67-41-10.63-12.1-29.82-17.29-54.38-17.29H107.44a10.21,10.21,0,0,0-10.07,8.61L67.69,247.06a6.12,6.12,0,0,0,6,7.08h44l22.93-145.4a8.93,8.93,0,0,1,5-6.66Z"/><path class="cls-3" d="M242,112.68c-9.4,48.26-41.56,64.95-82.64,64.95H138.48a10.17,10.17,0,0,0-10,8.61L114.7,273.4a5.36,5.36,0,0,0,5.29,6.19h37.09a8.92,8.92,0,0,0,8.81-7.53l.36-1.89,7-44.31.45-2.45a8.94,8.94,0,0,1,8.82-7.53h5.55c35.93,0,64.07-14.6,72.29-56.82,3.43-17.64,1.65-32.37-7.42-42.72a35.6,35.6,0,0,0-10.16-7.83c-.22,1.36-.45,2.74-.73,4.17Z"/><path class="cls-4" d="M232.93,104.59c-1.46-.43-2.94-.81-4.43-1.14s-3.13-.64-4.71-.89a115.11,115.11,0,0,0-18.43-1.35H149.49a8.94,8.94,0,0,0-8.82,7.54l-11.87,75.3-.35,2.19a10.18,10.18,0,0,1,10-8.61h20.92c41.08,0,73.24-16.68,82.63-64.95.28-1.43.52-2.81.73-4.17a50,50,0,0,0-7.72-3.26c-.7-.24-1.41-.46-2.11-.66"/></svg>