<svg id="Layer_1" data-name="Layer 1" xmlns="http://www.w3.org/2000/svg" viewBox="0 0 329.82 329.82"><defs><style>.cls-1{fill:#fff;}.cls-2{fill:#010101;fill-rule:evenodd;}</style></defs><rect class="cls-1" width="329.82" height="329.82"/><path class="cls-2" d="M173.75,206.4h37.79c5.65,0,10.28-2.31,14.05-7a24.76,24.76,0,0,0,5.5-15.93c0-12.3-15.78-21-21.87-21h-20.7a5.08,5.08,0,0,1-3.91-1.89,7,7,0,0,1-1.6-4.49,8.87,8.87,0,0,1,1.6-5.21,5.48,5.48,0,0,1,4.34-2.31h38.81v-15.5H188.23c-7.1,0-12.61,2.17-16.52,6.37-3.47,3.91-5.21,9.12-5.21,15.35a24.67,24.67,0,0,0,5.21,15.78c3.91,4.78,8.55,7.25,14.2,7.25H209.8a4,4,0,0,1,3.48,1.59,6.2,6.2,0,0,1,1.45,4.2,8.12,8.12,0,0,1-1.89,5.07,6.25,6.25,0,0,1-4.63,2H170l-.58-1L155.06,143.7l-.72-1.45c-3.48-7.09-9.27-10.57-17.23-10.57a21.53,21.53,0,0,0-11.73,3.19,16.27,16.27,0,0,0-7.24,9.41l-19.27,62,17.53.15,17.66-55.18c.44-1.74,1.45-2.6,2.76-2.6a2.35,2.35,0,0,1,1.73.72,4.38,4.38,0,0,1,.87,1.88l17.81,55.18h16.52ZM43.41,155.72v50.54H27.19v-56c0-7.24,1.74-12.31,5.51-15.35,2.89-2.18,7.24-3.33,13.32-3.33a21.11,21.11,0,0,1,12.89,4.2,20.12,20.12,0,0,1,7.53,11.15L77,184.1l1.74,5.07a4,4,0,0,0,1.3,2.32,2.33,2.33,0,0,0,2.32.58,2.17,2.17,0,0,0,2.17-2.32V133.27h16.65V189c0,6.22-1.44,10.86-4.49,14.19-2.89,3.33-7.24,5.07-13,5.07a27.13,27.13,0,0,1-12.6-2.75,14.52,14.52,0,0,1-7.82-9.42L51.09,153.69l-.87-2.75a5.61,5.61,0,0,0-1.59-2.46,3.06,3.06,0,0,0-2.47-.58,2.89,2.89,0,0,0-2,1.45,5,5,0,0,0-.73,2.6v3.77ZM302.63,206.4l-18.82-62.7-.73-1.45c-3.47-7.09-9.27-10.57-17.23-10.57a21.53,21.53,0,0,0-11.73,3.19,16.27,16.27,0,0,0-7.24,9.41l-19.26,62,17.52.15,17.67-55.18c.43-1.74,1.44-2.6,2.75-2.6a2.35,2.35,0,0,1,1.73.72,4.52,4.52,0,0,1,.88,1.88L286,206.41h16.65Z"/></svg>