<svg id="Layer_1" data-name="Layer 1" xmlns="http://www.w3.org/2000/svg" viewBox="0 0 329.82 329.82"><defs><style>.cls-1{fill:#fff;}.cls-2{fill:#fcbb30;}</style></defs><rect class="cls-1" width="329.82" height="329.82"/><path class="cls-2" d="M164.88,124.08c5.86,0,10.68-3,11.33-7L182,51.7c0-6.47-7.58-11.78-17.1-11.78s-17.08,5.31-17.08,11.78l5.78,65.4c.64,3.93,5.46,7,11.3,7h0M129.54,144.5c2.93-5.06,2.71-10.76-.38-13.29L75.4,93.51c-5.59-3.24-14,.65-18.72,8.9s-3.93,17.44,1.64,20.68l59.53,27.71c3.72,1.38,8.79-1.27,11.71-6.33l0,0m70.72,0c2.94,5.06,8,7.72,11.71,6.34l59.52-27.72c5.61-3.23,6.41-12.44,1.68-20.67S260,90.27,254.42,93.51l-53.76,37.71c-3.07,2.52-3.3,8.22-.38,13.29l0,0m-35.38,61.3c5.86,0,10.68,3,11.33,7L182,278.12c0,6.49-7.58,11.78-17.1,11.78s-17.08-5.29-17.08-11.78l5.78-65.39c.64-3.94,5.46-7,11.3-7h0m35.38-20.43c2.94-5.08,8-7.71,11.71-6.31l59.52,27.69c5.61,3.24,6.41,12.45,1.68,20.7s-13.18,12.12-18.75,8.89l-53.76-37.67c-3.07-2.55-3.3-8.25-.38-13.31h0m-70.72,0c2.93,5.06,2.71,10.76-.38,13.31L75.4,236.32c-5.59,3.23-14-.69-18.72-8.9S52.75,210,58.32,206.73L117.85,179c3.72-1.4,8.79,1.24,11.71,6.31h0"/></svg>